# xmcd CD database file
#
# Track frame offsets:
#	150
#	18110
#	34646
#	53357
#	69557
#	89366
#	111801
#
# Disc length: 1710 seconds
#
# Revision: 4
# Processed by: cddbd v1.5.2PL0 Copyright (c) Steve Scherf et al.
# Submitted via: CDex 1.51
#
DISCID=4906ac07
DTITLE=Bonnie Bishop - Free
DYEAR=2012
DGENRE=Blues
TTITLE0=Bonnie Bishop - Keep Using Me
TTITLE1=Bonnie Bishop - Shrinking Violet
TTITLE2=Bonnie Bishop - Free
TTITLE3=Bonnie Bishop - Bad Seed
TTITLE4=Bonnie Bishop - World Like This
TTITLE5=Bonnie Bishop - The Best Songs Come From Broken Hearts
TTITLE6=Bonnie Bishop - Right Where You Are
EXTD=YEAR: 2012
EXTT0=
EXTT1=
EXTT2=
EXTT3=
EXTT4=
EXTT5=
EXTT6=
PLAYORDER=
